<svg version="1.0" xmlns="http://www.w3.org/2000/svg" width="1424.000000pt" height="267.000000pt" viewBox="0 0 1424.000000 267.000000" preserveAspectRatio="xMidYMid meet">

<g transform="translate(0.000000,267.000000) scale(0.100000,-0.100000)" fill="#fd4b2d" stroke="none">
<path d="M1335 2440 c-256 -6 -291 -12 -370 -62 -86 -55 -151 -142 -183 -248 -6 -19 -13 -156 -16 -305 -3 -148 -5 -272 -6 -273 0 -2 -21 14 -46 37 -61 53 -121 72 -231 72 -102 0 -156 -18 -217 -72 -50 -43 -93 -131 -101 -206 -8 -67 8 -165 31 -187 8 -8 14 -19 14 -25 0 -20 63 -81 113 -109 66 -37 94 -44 187 -43 85 1 166 30 214 78 14 14 28 24 31 21 2 -2 7 -96 10 -209 4 -112 11 -229 17 -259 22 -118 113 -242 214 -293 84 -42 151 -56 279 -58 l120 -1 3 206 2 206 28 0 c162 2 807 -1 809 -4 3 -2 4 -89 3 -194 0 -104 2 -196 5 -203 4 -11 32 -13 143 -8 115 4 146 9 197 30 145 60 243 179 274 330 12 62 20 923 11 1239 -6 198 -7 207 -35 274 -50 117 -140 198 -265 241 -71 24 -74 24 -533 27 -254 2 -570 1 -702 -2z m283 -630 c2 -60 7 -97 15 -102 14 -9 86 -7 92 2 2 4 6 45 9 91 l5 84 36 9 c64 15 82 3 89 -56 10 -78 14 -82 66 -54 39 21 46 30 53 67 5 24 11 46 13 48 7 7 77 10 107 5 l27 -6 -2 -370 -3 -369 -575 0 c-316 1 -617 1 -667 1 -114 0 -117 8 -33 87 33 31 60 64 60 74 0 10 -23 44 -51 75 -28 31 -49 57 -47 60 2 2 157 4 344 4 187 1 345 5 351 8 6 4 10 86 10 215 0 136 4 211 11 215 5 4 27 7 49 7 l38 -1 3 -94z m-1037 -309 c103 -65 108 -201 10 -281 -60 -50 -162 -40 -217 22 -49 54 -61 111 -34 172 47 109 150 146 241 87z" fill="#fd4b2d"/>
<path d="M10540 2103 c-127 -7 -231 -47 -325 -126 -48 -40 -92 -118 -114 -198 -11 -41 -11 -189 1 -244 7 -32 60 -115 98 -152 67 -67 121 -97 378 -213 39 -18 72 -37 72 -41 0 -5 6 -6 13 -3 8 3 34 -17 60 -46 41 -45 47 -57 47 -96 0 -38 -6 -51 -38 -86 -36 -38 -45 -42 -116 -53 -75 -12 -78 -12 -134 15 -31 16 -68 39 -82 53 -48 46 -97 103 -108 124 -11 21 -12 20 -49 -13 -20 -19 -41 -34 -46 -34 -4 0 -14 -6 -21 -12 -15 -15 -32 -26 -98 -68 l-48 -29 18 -33 c9 -17 25 -41 35 -52 9 -11 27 -34 38 -51 41 -59 163 -137 278 -176 72 -25 272 -27 352 -3 219 65 340 216 340 424 0 130 -35 221 -118 308 -28 29 -115 81 -248 147 -77 38 -142 69 -145 70 -26 4 -105 53 -130 81 -23 27 -30 44 -30 78 0 55 26 89 88 116 96 43 193 -3 283 -131 l16 -23 49 40 c27 21 55 45 62 52 7 6 16 12 20 12 4 1 31 22 61 49 l53 48 -26 42 c-103 163 -262 236 -486 224z" fill="#fd4b2d"/>
<path d="M11640 2098 c-152 -13 -287 -99 -355 -228 -78 -150 -57 -360 48 -473 46 -50 175 -139 188 -131 5 3 9 1 9 -4 0 -9 46 -31 205 -97 65 -27 102 -49 133 -80 38 -40 42 -48 42 -95 0 -89 -50 -133 -162 -145 -61 -7 -72 -5 -135 24 -39 18 -77 44 -88 60 -41 58 -85 101 -103 101 -10 0 -46 -20 -80 -45 -34 -25 -65 -45 -69 -45 -16 0 -83 -54 -83 -66 0 -19 86 -140 124 -176 45 -42 150 -99 230 -125 126 -41 338 -28 447 28 192 98 269 242 247 462 -8 84 -48 157 -128 237 -42 42 -86 70 -181 118 -70 34 -129 62 -133 62 -23 0 -156 76 -188 107 -32 31 -38 44 -38 79 0 26 8 53 23 75 19 28 33 37 87 50 59 15 69 15 110 1 25 -9 51 -22 59 -29 8 -8 24 -21 37 -30 13 -8 24 -23 24 -33 0 -10 7 -20 15 -24 8 -3 15 -12 15 -21 0 -13 4 -14 21 -4 35 19 172 126 203 159 26 29 27 33 15 62 -22 53 -85 117 -159 163 -98 59 -207 77 -380 63z" fill="#fd4b2d"/>
<path d="M13024 2098 c-192 -16 -350 -93 -490 -239 -174 -184 -239 -475 -167 -756 9 -35 21 -63 26 -63 6 0 7 -3 4 -7 -16 -16 87 -178 163 -257 90 -93 174 -143 327 -195 84 -29 104 -32 217 -32 92 0 143 5 197 20 100 26 141 41 160 57 8 8 20 14 25 14 21 0 155 100 194 145 23 26 47 54 54 61 28 28 104 193 120 259 50 216 29 420 -60 598 -143 282 -421 424 -770 395z m231 -333 c59 -20 139 -78 189 -137 109 -126 139 -264 96 -433 -44 -172 -205 -309 -385 -330 -68 -7 -184 15 -248 47 -62 31 -173 148 -204 214 -27 56 -28 67 -28 204 0 137 1 148 27 204 50 106 174 208 298 243 57 16 189 10 255 -12z" fill="#fd4b2d"/>
<path d="M3415 2069 c-2 -8 -4 -347 -2 -754 l2 -740 160 0 160 0 5 454 5 455 200 -294 c110 -162 230 -340 267 -395 38 -55 85 -125 105 -155 l38 -55 132 -9 c72 -5 139 -6 147 -3 13 5 15 92 15 729 0 398 -3 735 -6 751 l-5 27 -161 -2 -162 -3 -3 -439 c-1 -242 -4 -441 -6 -444 -3 -2 -17 13 -31 34 -54 78 -165 240 -195 284 -146 215 -347 503 -372 532 -22 26 -28 27 -155 34 -108 5 -134 4 -138 -7z" fill="#fd4b2d"/>
<path d="M6585 1679 c-44 -3 -89 -11 -100 -17 -11 -6 -42 -21 -69 -34 -135 -63 -200 -255 -132 -390 35 -71 50 -87 121 -130 57 -35 201 -98 223 -98 15 0 105 -41 135 -62 22 -16 27 -27 27 -59 0 -34 -5 -42 -40 -65 -36 -24 -46 -26 -114 -21 -78 5 -146 35 -217 94 -33 28 -58 26 -99 -7 -14 -11 -49 -38 -78 -60 -48 -37 -51 -43 -40 -63 38 -71 192 -179 295 -206 75 -20 266 -15 338 9 128 42 227 158 244 283 17 131 -23 224 -126 293 -57 39 -89 53 -271 119 -81 30 -132 67 -132 95 0 11 11 31 23 46 36 41 120 45 208 10 36 -14 74 -26 85 -25 10 0 51 20 89 43 79 49 90 74 54 120 -72 91 -234 139 -424 125z" fill="#fd4b2d"/>
<path d="M8825 1679 c-85 -7 -193 -55 -244 -108 -53 -57 -72 -112 -72 -212 0 -74 3 -94 25 -135 14 -27 31 -56 38 -64 37 -42 160 -108 273 -145 158 -51 195 -78 195 -139 0 -37 -61 -69 -137 -73 -77 -3 -122 12 -213 72 -39 25 -75 45 -81 45 -11 0 -129 -82 -161 -113 -22 -21 -17 -33 45 -99 55 -59 142 -113 226 -138 70 -22 278 -28 326 -10 14 5 38 12 52 15 23 4 92 46 143 88 9 6 33 45 54 85 32 61 38 83 38 136 0 95 -25 169 -75 219 -48 48 -177 114 -282 146 -79 23 -158 69 -175 101 -14 26 8 66 45 80 60 23 177 4 244 -39 10 -6 25 -4 45 6 45 22 156 96 156 103 0 22 -74 97 -125 125 -92 52 -188 67 -340 54z" fill="#fd4b2d"/>
<path d="M5209 1665 c-114 -42 -191 -102 -255 -196 -24 -37 -44 -70 -44 -73 0 -3 -9 -25 -20 -49 -40 -88 -53 -290 -24 -401 35 -136 131 -274 229 -329 99 -57 144 -67 285 -67 131 -1 250 39 306 101 l19 21 5 -48 5 -49 135 -3 c74 -1 145 0 157 3 l22 5 -2 543 -2 542 -135 2 c-184 2 -179 3 -174 -52 2 -25 1 -45 -4 -45 -4 0 -24 14 -44 30 -21 17 -62 42 -93 55 -51 23 -68 25 -193 24 -86 0 -150 -5 -173 -14z m326 -265 c87 -37 156 -119 181 -215 20 -73 17 -107 -13 -181 -95 -231 -412 -251 -523 -33 -26 51 -29 63 -31 153 -2 94 31 167 100 225 99 83 178 97 286 51z" fill="#fd4b2d"/>
<path d="M7287 1664 c-3 -3 -4 -175 -1 -382 5 -362 6 -378 29 -438 29 -76 68 -140 109 -177 61 -54 68 -58 109 -76 69 -30 145 -42 257 -42 115 1 178 14 257 56 101 53 191 182 213 305 5 30 11 213 12 405 l3 350 -155 0 -155 0 -5 -365 c-3 -201 -7 -366 -8 -368 -1 -1 -17 -18 -35 -36 -74 -74 -204 -78 -269 -8 -59 62 -59 64 -61 435 l-2 342 -146 3 c-80 1 -148 -1 -152 -4z" fill="#fd4b2d"/>
</g>
</svg>